<?xml version="1.0" encoding="utf-8"?>
<!-- Generator: Adobe Illustrator 16.0.4, SVG Export Plug-In . SVG Version: 6.00 Build 0)  -->
<!DOCTYPE svg PUBLIC "-//W3C//DTD SVG 1.1//EN" "http://www.w3.org/Graphics/SVG/1.1/DTD/svg11.dtd">
<svg version="1.1" id="Layer_1" xmlns="http://www.w3.org/2000/svg" xmlns:xlink="http://www.w3.org/1999/xlink" x="0px" y="0px"
	 width="136.152px" height="37px" viewBox="0 0 136.152 37" enable-background="new 0 0 136.152 37" xml:space="preserve">
<path fill="none" d="M63.586,10.972l0.415-2.354c0.17-0.966-0.008-1.19-0.009-1.193c-0.021-0.025-0.15-0.091-0.485-0.091h-0.97
	l-0.941,5.337h0.277C62.789,12.671,63.334,12.4,63.586,10.972z"/>
<polygon fill="none" points="50.803,13.771 53.465,25.984 57.349,3.953 "/>
<path fill="none" d="M67.937,18.608h5.552l-0.508,2.879c-0.115,0.653-0.035,0.96,0.03,1.037c0.047,0.056,0.226,0.111,0.521,0.111
	c0.56,0,1.126-0.115,1.37-1.496c0.297-1.685-0.587-2.751-2.054-4.351c-1.648-1.799-3.685-4.032-3.087-8.034l-0.303,1.712
	c-0.376,2.126-1.222,3.721-2.521,4.764C67.784,16.218,67.962,17.515,67.937,18.608z"/>
<path fill="#8E3089" d="M40.672,16.901h-5.581l-0.747,4.238c-0.244,1.381-0.81,1.496-1.369,1.496c-0.296,0-0.475-0.056-0.521-0.111
	c-0.065-0.078-0.145-0.384-0.03-1.037l2.274-12.896c0.249-1.411,0.84-1.529,1.375-1.529c0.304,0,0.464,0.062,0.508,0.114
	c0.068,0.082,0.154,0.399,0.037,1.067l-0.658,3.732h5.58l0.556-3.146c0.41-2.329,0.081-4.149-0.979-5.413
	c-0.983-1.172-2.512-1.767-4.542-1.767c-2.79,0-4.971,1.16-6.319,3.274l0.529-3.001H17.152l-0.496,2.812
	c-0.187-0.497-0.436-0.948-0.763-1.338c-0.973-1.159-2.48-1.747-4.481-1.747c-4.046,0-6.806,2.49-7.571,6.832
	c-0.737,4.178,1.363,6.468,3.05,8.308c1.467,1.601,2.352,2.666,2.055,4.351c-0.244,1.381-0.811,1.496-1.37,1.496
	c-0.296,0-0.475-0.056-0.521-0.111c-0.065-0.078-0.145-0.384-0.03-1.037l0.508-2.879H1.953l-0.405,2.294
	c-0.411,2.327-0.082,4.147,0.978,5.41c0.984,1.173,2.513,1.768,4.544,1.768c4.089,0,6.873-2.489,7.639-6.83
	c0.737-4.179-1.362-6.469-3.05-8.31c-1.467-1.6-2.351-2.666-2.054-4.35c0.27-1.529,0.869-1.529,1.307-1.529
	c0.303,0,0.433,0.059,0.458,0.09c0.061,0.072,0.144,0.394,0.021,1.092l-0.383,2.162h5.583l0.274-1.576
	c0.093-0.525,0.143-1.021,0.161-1.495h3.095l-3.61,20.474h5.785l3.609-20.474h3.297c-0.104,0.368-0.198,0.747-0.269,1.147
	l-2.189,12.421c-0.411,2.327-0.082,4.147,0.978,5.41c0.984,1.173,2.513,1.768,4.544,1.768c4.09,0,6.874-2.489,7.639-6.83
	L40.672,16.901z"/>
<path fill="#8E3089" d="M77.616,12.94c-1.467-1.6-2.351-2.666-2.054-4.35c0.27-1.529,0.869-1.529,1.307-1.529
	c0.28,0,0.428,0.054,0.458,0.09c0.061,0.072,0.143,0.394,0.02,1.092l-0.383,2.162h5.582l0.276-1.576
	c0.414-2.343,0.087-4.171-0.971-5.433c-0.973-1.159-2.48-1.747-4.482-1.747c-4.015,0-6.761,2.453-7.549,6.731
	c0.335-2.103,0.053-3.668-0.871-4.769c-0.954-1.137-2.504-1.689-4.737-1.689h-5.509h-0.996h-5.169l-4.367,6.733l1.187-6.733h-5.783
	L39.01,27.808h5.784l1.4-7.941l0.088-0.124l1.67,8.065h5.191h0.719h5.065l1.714-9.725h0.459c0.455,0,0.779,0.075,0.889,0.206
	c0.066,0.078,0.264,0.429,0.048,1.657L61.375,23.7c-0.35,1.979-0.301,2.492-0.18,3.263l0.134,0.845h5.954l-0.307-1.24
	c-0.176-0.709-0.068-1.445,0.114-2.486l0.248-1.406c-0.008,1.495,0.372,2.717,1.146,3.639c0.984,1.172,2.513,1.767,4.543,1.767
	c4.09,0,6.873-2.489,7.638-6.83C81.402,17.071,79.303,14.781,77.616,12.94z M62.537,7.334h0.97c0.335,0,0.464,0.065,0.485,0.091
	c0.001,0.003,0.179,0.228,0.009,1.193l-0.415,2.354c-0.252,1.429-0.797,1.699-1.713,1.699h-0.277L62.537,7.334z M53.465,25.984
	l-2.662-12.214l6.546-9.817L53.465,25.984z M66.938,15.23c1.3-1.043,2.146-2.638,2.521-4.764l0.303-1.712
	c-0.598,4.002,1.438,6.235,3.087,8.034c1.467,1.6,2.351,2.666,2.054,4.351c-0.244,1.381-0.811,1.496-1.37,1.496
	c-0.296,0-0.475-0.056-0.521-0.111c-0.065-0.077-0.146-0.384-0.03-1.037l0.508-2.879h-5.552
	C67.962,17.515,67.784,16.218,66.938,15.23z"/>
<polygon fill="#4A2667" points="92.729,1.923 91.354,9.729 90.625,1.923 84.166,1.923 79.603,27.808 85.01,27.808 86.919,16.983 
	87.936,27.808 93.539,27.808 98.104,1.923 "/>
<path fill="#7E2082" d="M134.213,3.417c-0.984-1.173-2.513-1.768-4.543-1.768c-2.789,0-4.97,1.16-6.317,3.274l0.529-3.001h-12.837
	h-0.795H98.777l-4.563,25.885h12.266l0.954-5.412h-6.481l0.88-4.996h5.152l0.954-5.411h-5.152l0.821-4.654h5.688h0.795h3.129
	l-3.61,20.474h5.784l3.609-20.474h3.298c-0.104,0.368-0.197,0.747-0.268,1.147l-2.191,12.421c-0.41,2.328-0.081,4.149,0.979,5.411
	c0.983,1.173,2.512,1.767,4.542,1.767c4.089,0,6.873-2.489,7.641-6.831l0.765-4.348h-5.578l-0.747,4.238
	c-0.244,1.381-0.811,1.496-1.37,1.496c-0.337,0-0.485-0.069-0.52-0.11c-0.065-0.078-0.146-0.384-0.03-1.038l2.273-12.896
	c0.249-1.411,0.841-1.529,1.376-1.529c0.305,0,0.464,0.062,0.508,0.114c0.02,0.022,0.183,0.245,0.038,1.067l-0.658,3.732h5.579
	l0.553-3.146C135.603,6.501,135.272,4.68,134.213,3.417z"/>
<g>
	<path fill="#676767" d="M100.136,30.771l-0.037,0.209c-0.105,0.603-0.357,0.986-0.801,1.179c0.459,0.192,0.574,0.635,0.465,1.253
		l-0.084,0.476c-0.159,0.903-0.722,1.388-1.64,1.388h-1.446l1.031-5.849h1.388C99.964,29.427,100.295,29.87,100.136,30.771z
		 M98.396,30.263l-0.273,1.545h0.359c0.343,0,0.578-0.15,0.661-0.618l0.058-0.325c0.073-0.418-0.036-0.602-0.362-0.602H98.396z
		 M97.977,32.644l-0.317,1.796h0.526c0.31,0,0.502-0.142,0.579-0.576l0.089-0.51c0.096-0.543-0.05-0.71-0.468-0.71H97.977z"/>
	<path fill="#676767" d="M101.063,33.337l-0.473-3.91h0.961l0.232,2.665l1.172-2.665h0.877l-1.851,3.91l-0.342,1.938h-0.919
		L101.063,33.337z"/>
	<path fill="#676767" d="M106.376,29.427l-0.796,4.512c-0.073,0.418,0.084,0.568,0.376,0.568c0.293,0,0.503-0.15,0.576-0.568
		l0.796-4.512h0.868l-0.785,4.453c-0.164,0.937-0.727,1.471-1.629,1.471s-1.275-0.534-1.111-1.471l0.785-4.453H106.376z"/>
	<path fill="#676767" d="M109.359,31.039l-0.747,4.236h-0.827l1.031-5.849h1.154l0.326,3.501l0.618-3.501h0.817l-1.031,5.849h-0.944
		L109.359,31.039z"/>
	<path fill="#676767" d="M113.284,35.275c-0.023-0.15-0.041-0.242,0.043-0.719l0.162-0.919c0.096-0.543-0.052-0.743-0.47-0.743
		h-0.318l-0.419,2.381h-0.92l1.031-5.849h1.388c0.952,0,1.283,0.443,1.124,1.345l-0.08,0.46c-0.106,0.602-0.368,0.994-0.812,1.187
		c0.426,0.192,0.498,0.635,0.391,1.245l-0.159,0.901c-0.05,0.285-0.079,0.494-0.025,0.711H113.284z M113.166,30.263l-0.317,1.796
		h0.359c0.343,0,0.578-0.15,0.66-0.618l0.103-0.576c0.073-0.418-0.036-0.602-0.362-0.602H113.166z"/>
	<path fill="#676767" d="M116.238,31.892h1.263l-0.147,0.835h-1.262l-0.303,1.713h1.588l-0.146,0.836h-2.508l1.031-5.849h2.508
		l-0.147,0.836h-1.588L116.238,31.892z"/>
	<path fill="#676767" d="M120.079,29.36c0.894,0,1.259,0.534,1.094,1.47l-0.032,0.185h-0.869l0.043-0.243
		c0.073-0.417-0.065-0.576-0.358-0.576c-0.292,0-0.487,0.159-0.561,0.576c-0.213,1.204,1.545,1.429,1.25,3.101
		c-0.165,0.935-0.728,1.47-1.63,1.47s-1.276-0.535-1.111-1.47l0.063-0.359h0.869l-0.073,0.418c-0.073,0.417,0.083,0.567,0.376,0.567
		s0.503-0.15,0.576-0.567c0.212-1.204-1.544-1.429-1.25-3.101C118.631,29.895,119.186,29.36,120.079,29.36z"/>
	<path fill="#676767" d="M121.689,29.427h2.841l-0.147,0.836h-0.96l-0.884,5.013h-0.92l0.884-5.013h-0.961L121.689,29.427z"/>
	<path fill="#676767" d="M127.401,30.873l-0.134,0.76c-0.166,0.936-0.706,1.445-1.626,1.445h-0.435l-0.387,2.197h-0.92l1.031-5.849
		h1.354C127.205,29.427,127.565,29.937,127.401,30.873z M125.704,30.263l-0.349,1.979h0.434c0.292,0,0.475-0.134,0.548-0.552
		l0.155-0.876c0.073-0.418-0.062-0.552-0.354-0.552H125.704z"/>
	<path fill="#676767" d="M127.972,35.275h-0.919l1.031-5.849h0.919l-0.442,2.507h1.045l0.442-2.507h0.936l-1.031,5.849h-0.936
		l0.441-2.506h-1.045L127.972,35.275z"/>
</g>
</svg>
